<svg width="58" height="58" viewBox="0 0 58 58" fill="none" xmlns="http://www.w3.org/2000/svg">
<path d="M54.341 14.6699C52.2 12.5062 49.4133 11.2035 46.4113 10.943C45.7203 8.02031 44.1117 5.36953 41.8008 3.39844C39.2293 1.20078 35.9555 0 32.5797 0C28.0598 0 23.857 2.11836 21.1836 5.7207C20.0055 5.33555 18.7707 5.14297 17.5133 5.14297C16.2445 5.14297 15.0098 5.33555 13.8203 5.73203C13.2313 5.92461 12.9027 6.57031 13.0953 7.15938C13.2879 7.74844 13.9336 8.07695 14.5227 7.88437C15.4855 7.56719 16.4938 7.40859 17.5133 7.40859C18.782 7.40859 20.0168 7.65781 21.1836 8.13359C21.682 8.3375 22.2711 8.16758 22.5656 7.70312C24.7859 4.29336 28.5242 2.26562 32.591 2.26562C38.4477 2.26562 43.398 6.4457 44.3723 12.2117C44.4629 12.7555 44.9273 13.152 45.4711 13.152C51.1352 13.2312 55.7344 17.8984 55.7344 23.5625C55.7344 29.3059 51.0672 33.973 45.3238 33.973H44.0664V27.4254C44.0664 26.1227 43.2281 24.2648 39.2293 22.8375C36.4766 21.852 32.8402 21.3082 29 21.3082C25.1598 21.3082 21.5121 21.852 18.7707 22.8375C14.7719 24.2648 13.9336 26.1227 13.9336 27.4254V33.9844H9.53828C5.52812 33.9844 2.26562 30.7219 2.26562 26.723C2.26562 23.5738 4.2707 20.7984 7.26133 19.8242C7.79375 19.6543 8.11094 19.1219 8.03164 18.5668C7.95234 18.057 7.90703 17.5359 7.90703 17.0262C7.90703 16.0746 8.04297 15.123 8.32617 14.2281C8.50742 13.6277 8.16758 12.9934 7.56719 12.8121C6.9668 12.6309 6.33242 12.9707 6.15117 13.5711C5.81133 14.6926 5.64141 15.848 5.64141 17.0375C5.64141 17.366 5.65273 17.6945 5.68672 18.023C2.24297 19.507 0 22.9055 0 26.723C0 31.9793 4.28203 36.25 9.53828 36.25H13.9336V51.8828C13.9336 53.1855 14.7719 55.0434 18.7707 56.4707C21.5121 57.4562 25.1484 58 29 58C32.8516 58 36.4879 57.4562 39.2293 56.4707C43.2281 55.0434 44.0664 53.1855 44.0664 51.8828V36.25H45.3238C52.3133 36.25 58 30.5633 58 23.5738C58 20.2207 56.6973 17.0488 54.341 14.6699ZM41.8008 35.5816C41.8008 36.1707 40.9285 37.1562 38.4703 38.0398C35.9555 38.9348 32.591 39.4332 29 39.4332C25.409 39.4332 22.0445 38.9348 19.5297 38.0398C17.0715 37.1562 16.1992 36.1707 16.1992 35.5816V30.8125C16.8563 31.2316 17.6945 31.6508 18.7707 32.0246C21.5234 33.0102 25.1598 33.5539 29 33.5539C32.8402 33.5539 36.4879 33.0102 39.2293 32.0246C40.2941 31.6395 41.1324 31.2316 41.8008 30.8125V35.5816ZM16.1992 38.9574C16.8563 39.3766 17.6945 39.7957 18.7707 40.1695C21.5234 41.1551 25.1598 41.6988 29 41.6988C32.8402 41.6988 36.4879 41.1551 39.2293 40.1695C40.2941 39.7844 41.1324 39.3766 41.8008 38.9574V43.7266C41.8008 44.3156 40.9285 45.3012 38.4703 46.1848C35.9555 47.0797 32.591 47.5781 29 47.5781C25.409 47.5781 22.0445 47.0797 19.5297 46.1848C17.0715 45.3012 16.1992 44.3156 16.1992 43.7266V38.9574ZM19.5297 24.9785C22.0445 24.0836 25.409 23.5852 29 23.5852C32.591 23.5852 35.9555 24.0836 38.4703 24.9785C40.9285 25.8621 41.8008 26.8477 41.8008 27.4367C41.8008 28.0258 40.9285 29.0113 38.4703 29.8949C35.9555 30.7898 32.591 31.2883 29 31.2883C25.409 31.2883 22.0445 30.7898 19.5297 29.8949C17.0715 29.0113 16.1992 28.0258 16.1992 27.4367C16.1992 26.8477 17.0715 25.8621 19.5297 24.9785ZM38.4703 54.341C35.9555 55.2359 32.591 55.7344 29 55.7344C25.409 55.7344 22.0445 55.2359 19.5297 54.341C17.0715 53.4574 16.1992 52.4719 16.1992 51.8828V47.1137C16.8563 47.5328 17.6945 47.952 18.7707 48.3258C21.5234 49.3113 25.1598 49.8551 29 49.8551C32.8402 49.8551 36.4879 49.3113 39.2293 48.3258C40.2941 47.9406 41.1324 47.5328 41.8008 47.1137V51.8828C41.8008 52.4719 40.9285 53.4574 38.4703 54.341ZM9.84414 10.6371C10.1387 10.6371 10.4332 10.5125 10.6484 10.3086C10.8637 10.0934 10.977 9.81016 10.977 9.5043C10.977 9.20977 10.8523 8.91524 10.6484 8.7C10.4332 8.48477 10.15 8.37148 9.84414 8.37148C9.54961 8.37148 9.25508 8.49609 9.03984 8.7C8.82461 8.91524 8.71133 9.19844 8.71133 9.5043C8.71133 9.79883 8.83594 10.0934 9.03984 10.3086C9.25508 10.5125 9.53828 10.6371 9.84414 10.6371Z" fill="#00C2FF"/>
</svg>
