<svg width="50" height="50" viewBox="0 0 50 50" fill="none" xmlns="http://www.w3.org/2000/svg">
<path d="M39.1763 50C29.484 50 18.1326 39.5497 14.2906 35.6857C-4.13365 17.3319 -0.378955 7.32067 2.06596 3.89578C2.32792 3.54451 2.58988 3.28106 2.93915 3.01761L5.82066 0.82217C7.30508 -0.407276 9.48804 -0.231641 10.8851 1.17344L17.5213 7.75976C18.9184 9.16484 19.0931 11.4481 17.9579 13.0288L15.0764 17.3319C15.1637 17.5953 15.3384 17.9466 15.775 18.6491C16.0369 19.0882 16.3862 19.5273 16.7355 20.0542C18.1326 21.8984 20.2282 24.2695 23.0224 27.0796C29.484 33.4903 32.0162 34.7197 32.7148 34.9832L36.9934 31.9974C38.5651 30.8558 40.8354 30.9436 42.2325 32.3487L48.8687 38.935C50.2658 40.3401 50.3531 42.5355 49.218 44.0284L46.9477 47.0142C46.6857 47.3655 46.4238 47.6289 46.1618 47.8046C43.8916 49.3853 41.6213 50 39.1763 50ZM8.17826 2.22725C7.82899 2.22725 7.47972 2.40289 7.21776 2.57852L4.33625 4.86178C4.16161 4.94959 3.98697 5.12523 3.89965 5.21305C-2.56192 14.3461 11.4091 29.5385 15.8623 34.0172C25.2054 43.3259 37.6046 51.3173 44.5901 45.8726C44.6774 45.7848 44.8521 45.6091 44.9394 45.5213L47.2097 42.5355C47.6462 41.9208 47.6462 41.0426 47.035 40.5157L40.3988 33.9294C39.7876 33.3147 38.8271 33.2268 38.1285 33.7538L33.2387 37.1786C31.143 37.969 25.5547 32.9634 21.1887 28.6603C18.3072 25.8502 16.1243 23.3913 14.7272 21.4593C14.2906 20.8446 13.9413 20.3177 13.592 19.8786C12.6315 18.3857 12.3696 17.3319 12.6315 16.6293L12.7188 16.3659L15.9496 11.7115C16.4735 11.009 16.3862 10.043 15.775 9.42829L9.13877 2.84197C8.96413 2.40289 8.52754 2.22725 8.17826 2.22725ZM40.7481 23.3035C40.7481 21.108 40.3115 19.0004 39.351 17.0684C36.9934 12.1506 32.1035 9.07702 26.6898 8.9892H25.5547V11.2725H26.6898C31.2304 11.3603 35.3343 13.907 37.3427 18.0344C38.1285 19.7029 38.5651 21.4593 38.5651 23.3035V24.4451H40.8354L40.7481 23.3035ZM48.2575 23.3035C48.2575 19.9664 47.5589 16.7171 46.0745 13.7313C42.4071 6.17904 34.9851 1.43689 26.6025 1.34908H25.4673V3.63233H26.6025C34.1119 3.72015 40.7481 7.93539 43.9789 14.6973C45.2886 17.4197 45.8999 20.2298 45.8999 23.2156V24.3573H48.1702L48.2575 23.3035ZM46.5111 14.873L46.0745 13.8192C43.2803 7.14503 34.7231 1.70035 26.6898 1.34908L25.5547 1.26126L25.4673 3.54451L26.6025 3.63233C33.7626 3.89578 41.5339 8.90138 44.0662 14.6973L44.5028 15.7512L46.5111 14.873Z" fill="#00C2FF"/>
</svg>
