<svg width="64" height="59" viewBox="0 0 64 59" fill="none" xmlns="http://www.w3.org/2000/svg">
<path d="M59.3842 15.7631C58.6343 13.8644 57.1087 12.3989 55.2469 11.6853C54.1867 8.95831 51.5103 7.13607 48.5495 7.13607H28.5608C28.0566 6.61361 27.5394 6.1676 27.0093 5.78531L24.5915 3.23672C22.5616 1.05767 20.2473 0 17.5192 0H7.17576C3.21939 0 0 3.173 0 7.07235V43.7721C0 46.6903 1.84889 49.3281 4.61576 50.373C5.3398 52.208 6.81374 53.7117 8.75313 54.4508C9.78747 57.1013 12.3992 59 15.4505 59H56.8242C60.7806 59 64 55.827 64 51.9276V22.3639C64 19.3566 62.0865 16.7825 59.3842 15.7631ZM56.9535 15.2916C56.9147 15.2916 56.876 15.2916 56.8242 15.2916H36.564L34.5083 13.1253H52.6869C54.4065 13.1253 55.9838 13.9536 56.9535 15.2916ZM52.8032 11.2138C52.7644 11.2138 52.7257 11.2138 52.6869 11.2138H33.0343C32.9309 11.2138 32.8275 11.2266 32.737 11.2648C31.8966 10.3855 31.0174 9.69741 30.0606 9.20043C30.0606 9.14946 30.0606 9.11123 30.0606 9.06026H48.5366C50.2691 9.04752 51.8465 9.87581 52.8032 11.2138ZM1.93939 43.7721V7.07235C1.93939 4.23067 4.29253 1.91145 7.17576 1.91145H17.5192C19.5491 1.91145 21.2299 2.62505 22.7814 4.14147C22.4194 4.10324 22.0444 4.07775 21.6566 4.07775H11.3131C7.35677 4.07775 4.13737 7.25076 4.13737 11.1501V47.8499C4.13737 47.8881 4.13737 47.9263 4.13737 47.9646C2.7798 47.0216 1.93939 45.467 1.93939 43.7721ZM6.07677 47.8499V11.1501C6.07677 8.30842 8.4299 5.9892 11.3131 5.9892H21.6566C23.1693 5.9892 24.4881 6.38423 25.7034 7.21253L26.6343 8.19374C26.3628 8.16825 26.0784 8.15551 25.7939 8.15551H15.4505C11.4941 8.15551 8.27475 11.3285 8.27475 15.2279V51.9276C8.27475 51.9659 8.27475 52.0041 8.27475 52.0551C6.91717 51.0993 6.07677 49.5447 6.07677 47.8499ZM62.0606 51.9276C62.0606 54.7693 59.7075 57.0886 56.8242 57.0886H15.4505C12.5673 57.0886 10.2141 54.7693 10.2141 51.9276V28.4806C10.2141 25.6389 12.5673 23.3197 15.4505 23.3197H56.8242C59.7075 23.3197 62.0606 25.6389 62.0606 28.4806V51.9276ZM56.8242 21.4082H15.4505C13.3818 21.4082 11.52 22.2747 10.2141 23.651V15.2279C10.2141 12.3862 12.5673 10.067 15.4505 10.067H25.7939C27.979 10.067 29.7762 10.8952 31.4311 12.6793L35.4263 16.8972C35.6073 17.0883 35.8659 17.203 36.1374 17.203H56.8242C59.7075 17.203 62.0606 19.5222 62.0606 22.3639V23.651C60.7547 22.2747 58.8929 21.4082 56.8242 21.4082ZM56.8242 27.5248H45.4465C44.9164 27.5248 44.4768 27.9581 44.4768 28.4806C44.4768 29.003 44.9164 29.4363 45.4465 29.4363H56.8242C57.3543 29.4363 57.7939 29.003 57.7939 28.4806C57.7939 27.9581 57.3543 27.5248 56.8242 27.5248ZM56.8242 31.6026H45.4465C44.9164 31.6026 44.4768 32.0359 44.4768 32.5583C44.4768 33.0808 44.9164 33.514 45.4465 33.514H56.8242C57.3543 33.514 57.7939 33.0808 57.7939 32.5583C57.7939 32.0359 57.3543 31.6026 56.8242 31.6026Z" fill="#00C2FF"/>
</svg>
