<svg width="46" height="64" viewBox="0 0 46 64" fill="none" xmlns="http://www.w3.org/2000/svg">
<path d="M39.9 27.2173V17.082C39.9271 12.4961 38.1011 8.0865 34.8415 4.87089C31.6901 1.72313 27.5648 0 23.1961 0C23.1285 0 23.0473 0 22.9797 0C13.6607 0.0135679 6.08645 7.66589 6.08645 17.082V27.2173C2.56983 27.6379 0 30.5957 0 34.1777V56.9447C0 60.8115 3.0838 64 6.93855 64H39.0615C42.9162 64 46 60.8115 46 56.9447V34.1777C45.9865 30.6093 43.4166 27.6379 39.9 27.2173ZM8.77801 17.082H8.79153C8.79153 9.15836 15.162 2.67289 22.9932 2.67289H23.0068C26.7263 2.65932 30.297 4.13822 32.9344 6.7704C35.6801 9.49756 37.2085 13.2152 37.1814 17.082V27.2309H34.2058V17.082C34.2329 14.0021 33.0156 11.0443 30.838 8.87344C28.7821 6.81111 25.9959 5.64427 23.0879 5.64427H23.0068C16.7851 5.64427 11.7536 10.7729 11.7536 17.0685V27.2309H8.77801V17.082ZM31.5143 17.082V27.2309H14.4722V17.082C14.4722 12.279 18.2864 8.37142 23.0203 8.37142H23.1014C25.2926 8.37142 27.4025 9.25334 28.958 10.8137C30.6081 12.4689 31.5413 14.7348 31.5143 17.082ZM43.4166 56.9854C43.4166 59.3598 41.496 61.2864 39.1291 61.2864H6.99265C4.6257 61.2864 2.70509 59.3598 2.70509 56.9854V34.2455C2.70509 31.8711 4.6257 29.9445 6.99265 29.9445H39.1291C41.496 29.9445 43.4166 31.8711 43.4166 34.2455V56.9854ZM27.673 44.7742C27.0779 42.6712 25.1708 41.233 22.9932 41.233C20.3017 41.233 18.1106 43.4174 18.1106 46.131C18.1106 48.3155 19.5443 50.2285 21.6407 50.8255V54.6245C21.6407 55.3708 22.2493 55.9813 22.9932 55.9813C23.7371 55.9813 24.3458 55.3708 24.3458 54.6245V50.8255C26.9291 50.0793 28.4305 47.3657 27.673 44.7742ZM22.9932 48.3019C21.7895 48.3019 20.8156 47.325 20.8156 46.1174C20.8156 44.9099 21.7895 43.933 22.9932 43.933C24.197 43.933 25.1708 44.9099 25.1708 46.1174C25.1708 47.325 24.197 48.3019 22.9932 48.3019Z" fill="#00C2FF"/>
</svg>
