<svg width="64" height="53" viewBox="0 0 64 53" fill="none" xmlns="http://www.w3.org/2000/svg">
<path d="M58.6373 27.6332H54.4921V22.5773C54.4921 10.1118 44.3882 0 32.1253 0C19.8624 0 9.67214 10.1118 9.67214 22.5773V24.8438H11.9175V22.5773C11.9175 11.4194 20.8987 2.26645 32.039 2.26645C43.0928 2.26645 52.1605 11.3322 52.1605 22.5773V27.6332V29.8997V45.2418C52.1605 48.2056 49.7424 50.6464 46.8062 50.6464H42.1429V48.2056C42.1429 46.898 41.1066 45.7648 39.7249 45.7648H34.7161C33.4207 45.7648 32.298 46.8109 32.298 48.2056V50.5592C32.298 51.8668 33.3343 53 34.7161 53H46.7199C50.9515 53 54.3194 49.6003 54.3194 45.3289V29.8997H58.4646C60.2782 29.8997 61.7463 31.3816 61.7463 33.2122V40.7089C61.7463 42.5395 60.2782 44.0214 58.4646 44.0214H57.342V46.2878H58.4646C61.4872 46.2878 63.9916 43.7599 63.9916 40.7089V33.2122C64.1643 30.1612 61.6599 27.6332 58.6373 27.6332ZM39.8976 50.5592H34.8024C34.7161 50.5592 34.7161 50.472 34.7161 50.472V48.1184C34.7161 48.0312 34.8024 48.0312 34.8024 48.0312H39.8112C39.8976 48.0312 39.8976 48.1184 39.8976 48.1184V50.5592ZM6.2178 27.6332H5.52694C2.50439 27.6332 0 30.1612 0 33.2122V33.9095V40.0115V40.7089C0 43.7599 2.50439 46.2878 5.52694 46.2878H6.2178H11.9175V44.0214V27.6332H7.59954H6.2178ZM9.67214 29.8997V44.0214H6.2178C4.05884 44.0214 2.24532 42.1908 2.24532 40.0115V33.9095C2.24532 31.7303 4.05884 29.8997 6.2178 29.8997H7.6859H9.67214Z" fill="#00C2FF"/>
</svg>
