<svg width="60" height="60" viewBox="0 0 60 60" fill="none" xmlns="http://www.w3.org/2000/svg">
<path d="M3.37802 17.1314V42.8686C3.37802 43.8016 2.62198 44.5576 1.68901 44.5576C0.756032 44.5576 0 43.8016 0 42.8686V17.1314C0 16.1984 0.756032 15.4424 1.68901 15.4424C2.62198 15.4424 3.37802 16.1984 3.37802 17.1314ZM30 54.0483C29.067 54.0483 28.311 54.8043 28.311 55.7373V58.311C28.311 59.244 29.067 60 30 60C30.933 60 31.689 59.244 31.689 58.311V55.7373C31.689 54.8043 30.933 54.0483 30 54.0483ZM48.0161 23.1635C47.0831 23.1635 46.3271 23.9196 46.3271 24.8525V35.1475C46.3271 36.0804 47.0831 36.8365 48.0161 36.8365C48.9491 36.8365 49.7051 36.0804 49.7051 35.1475V24.8525C49.7051 23.9196 48.9491 23.1635 48.0161 23.1635ZM58.311 15.4424C57.378 15.4424 56.622 16.1984 56.622 17.1314V42.8686C56.622 43.8016 57.378 44.5576 58.311 44.5576C59.244 44.5576 60 43.8016 60 42.8686V17.1314C60 16.1984 59.244 15.4424 58.311 15.4424ZM39.008 18.0161C38.0751 18.0161 37.319 18.7721 37.319 19.7051V40.2949C37.319 41.2279 38.0751 41.9839 39.008 41.9839C39.941 41.9839 40.6971 41.2279 40.6971 40.2949V19.7051C40.6971 18.7721 39.941 18.0161 39.008 18.0161ZM20.992 18.0161C20.059 18.0161 19.3029 18.7721 19.3029 19.7051V40.2949C19.3029 41.2279 20.059 41.9839 20.992 41.9839C21.9249 41.9839 22.681 41.2279 22.681 40.2949V19.7051C22.681 18.7721 21.9249 18.0161 20.992 18.0161ZM30 12.8686C29.067 12.8686 28.311 13.6247 28.311 14.5576V45.4424C28.311 46.3753 29.067 47.1314 30 47.1314C30.933 47.1314 31.689 46.3753 31.689 45.4424V14.5576C31.689 13.6247 30.933 12.8686 30 12.8686ZM11.9839 23.1635C11.0509 23.1635 10.2949 23.9196 10.2949 24.8525V35.1475C10.2949 36.0804 11.0509 36.8365 11.9839 36.8365C12.9169 36.8365 13.6729 36.0804 13.6729 35.1475V24.8525C13.6729 23.9196 12.9169 23.1635 11.9839 23.1635ZM30 5.95174C30.933 5.95174 31.689 5.19571 31.689 4.26273V1.68901C31.689 0.756032 30.933 0 30 0C29.067 0 28.311 0.756032 28.311 1.68901V4.26273C28.311 5.19571 29.067 5.95174 30 5.95174Z" fill="#00C2FF"/>
</svg>
