<svg width="62" height="62" viewBox="0 0 62 62" fill="none" xmlns="http://www.w3.org/2000/svg">
<path d="M19.8231 14.1293C19.8231 14.9517 19.1694 15.6054 18.3469 15.6054C17.5245 15.6054 16.8707 14.9517 16.8707 14.1293C16.8707 13.3068 17.5245 12.6531 18.3469 12.6531C19.1694 12.6531 19.8231 13.3068 19.8231 14.1293ZM31 45.1292C31.8224 45.1292 32.4762 44.4755 32.4762 43.6531V40.7429L32.898 40.5952C35.1755 39.7939 36.6939 37.6429 36.6939 35.2177C36.6939 32.0755 34.1422 29.5238 31 29.5238C29.4816 29.5238 28.2585 28.3007 28.2585 26.7823C28.2585 25.2639 29.4816 24.0408 31 24.0408C31.9068 24.0408 32.8558 24.4837 33.7204 25.3272C34.3109 25.8966 35.2388 25.8755 35.8082 25.285C36.3776 24.6946 36.3565 23.7667 35.766 23.1973C34.8803 22.3537 33.9102 21.7422 32.898 21.4048L32.4551 21.2571V18.3469C32.4551 17.5245 31.8014 16.8707 30.9789 16.8707C30.1565 16.8707 29.5027 17.5245 29.5027 18.3469V21.2571L29.0809 21.4048C26.8034 22.2061 25.285 24.3571 25.285 26.7823C25.285 29.9245 27.8367 32.4762 30.9789 32.4762C32.4973 32.4762 33.7204 33.6993 33.7204 35.2177C33.7204 36.7361 32.4973 37.9592 30.9789 37.9592C29.8823 37.9592 28.7435 37.3054 27.7524 36.1456C27.4993 35.8503 27.1408 35.6605 26.7401 35.6184C26.698 35.6184 26.6558 35.6184 26.6136 35.6184C26.2762 35.6184 25.9388 35.7449 25.6646 35.9558C25.032 36.483 24.9687 37.4109 25.4748 38.0435C26.5082 39.2878 27.7524 40.1524 29.0599 40.5952L29.4816 40.7429V43.6531C29.5238 44.4755 30.1776 45.1292 31 45.1292ZM12.4 19.5701C12.2524 19.5701 12.1048 19.5912 11.9782 19.6333C11.5986 19.7388 11.2823 19.9918 11.1136 20.3503C9.36327 23.598 8.43537 27.2884 8.43537 31C8.43537 43.4422 18.5578 53.5646 31 53.5646C43.4422 53.5646 53.5646 43.4422 53.5646 31C53.5646 24.1463 50.5068 17.7354 45.1714 13.4333C39.8361 9.13129 32.8558 7.50748 26.002 8.98367C25.6224 9.06803 25.285 9.3 25.0742 9.61633C24.8633 9.93265 24.7789 10.3333 24.8633 10.734C25.032 11.5354 25.8122 12.0415 26.6136 11.8728C32.5816 10.5864 38.6762 11.9993 43.3156 15.7531C47.9551 19.5068 50.6122 25.0742 50.6122 31.0211C50.6122 41.8395 41.8184 50.6333 31 50.6333C20.1816 50.6333 11.3878 41.8395 11.3878 31.0211C11.3878 27.7946 12.1891 24.5891 13.7075 21.7633C14.0871 21.0463 13.8129 20.1395 13.0959 19.7599C12.885 19.6333 12.6531 19.5701 12.4 19.5701ZM62 31C62 48.1027 48.1027 62 31 62C13.8973 62 0 48.1027 0 31C0 13.8973 13.8973 0 31 0C48.1027 0 62 13.8973 62 31ZM59.0476 31C59.0476 15.5422 46.4578 2.95238 31 2.95238C15.5422 2.95238 2.95238 15.5422 2.95238 31C2.95238 46.4578 15.5422 59.0476 31 59.0476C46.4578 59.0476 59.0476 46.4578 59.0476 31Z" fill="#00C2FF"/>
</svg>
