<svg width="49" height="59" viewBox="0 0 49 59" fill="none" xmlns="http://www.w3.org/2000/svg">
<path d="M41.581 35.6904C41.581 36.2478 41.1289 36.7008 40.5725 36.7008H35.6227C35.0662 36.7008 34.6141 36.2478 34.6141 35.6904C34.6141 35.1329 35.0662 34.6799 35.6227 34.6799H40.5725C41.1289 34.6915 41.581 35.1445 41.581 35.6904ZM40.5725 27.2585H35.6227C35.0662 27.2585 34.6141 27.7114 34.6141 28.2689C34.6141 28.8264 35.0662 29.2793 35.6227 29.2793H40.5725C41.1289 29.2793 41.581 28.8264 41.581 28.2689C41.581 27.7114 41.1289 27.2585 40.5725 27.2585ZM40.5725 49.5577H8.42749C7.87107 49.5577 7.41897 50.0106 7.41897 50.5681C7.41897 51.1256 7.87107 51.5785 8.42749 51.5785H40.5725C41.1289 51.5785 41.581 51.1256 41.581 50.5681C41.581 50.0106 41.1289 49.5577 40.5725 49.5577ZM40.5725 42.1246H35.6227C35.0662 42.1246 34.6141 42.5776 34.6141 43.135C34.6141 43.6925 35.0662 44.1455 35.6227 44.1455H40.5725C41.1289 44.1455 41.581 43.6925 41.581 43.135C41.581 42.5776 41.1289 42.1246 40.5725 42.1246ZM40.5725 19.8254H35.6227C35.0662 19.8254 34.6141 20.2783 34.6141 20.8358C34.6141 21.3933 35.0662 21.8463 35.6227 21.8463H40.5725C41.1289 21.8463 41.581 21.3933 41.581 20.8358C41.581 20.2783 41.1289 19.8254 40.5725 19.8254ZM31.6813 31.9738C31.6813 38.6752 26.233 44.1339 19.5444 44.1339C16.3565 44.1339 13.3542 42.9028 11.0705 40.6612L11.0473 40.6496C11.0125 40.6264 10.9894 40.6031 10.9662 40.5799C10.943 40.5567 10.9198 40.5219 10.885 40.487L10.8734 40.4638C8.64774 38.1758 7.41897 35.1677 7.41897 31.9738C7.41897 25.2724 12.8673 19.8138 19.5559 19.8138C26.2446 19.8254 31.6813 25.2724 31.6813 31.9738ZM11.7197 38.3965L18.5474 31.5557V21.8811L18.2924 21.9159C13.2382 22.5547 9.43601 26.8752 9.43601 31.9738C9.43601 34.2386 10.1779 36.3988 11.569 38.1874L11.7197 38.3965ZM29.6759 31.9738C29.6759 26.8752 25.8621 22.5431 20.8195 21.9159L20.5645 21.8811V31.9738C20.5645 32.2409 20.4601 32.4965 20.2747 32.6823L13.1571 39.8134L13.3657 39.976C15.1625 41.3697 17.3071 42.113 19.5675 42.113C25.1318 42.1246 29.6759 37.5718 29.6759 31.9738ZM49 53.0419C49 56.3287 46.3338 59 43.0532 59H5.95836C2.66619 59 0 56.3287 0 53.0419V5.95807C0 2.67126 2.66619 0 5.94677 0H43.0416C46.3222 0 48.9884 2.67126 48.9884 5.95807V53.0419H49ZM46.983 5.95807C46.983 3.78622 45.2094 2.00925 43.0416 2.00925H5.94677C3.77904 2.00925 2.00544 3.78622 2.00544 5.95807V53.0303C2.00544 55.2022 3.77904 56.9791 5.94677 56.9791H43.0416C45.2094 56.9791 46.983 55.2022 46.983 53.0303V5.95807Z" fill="#00C2FF"/>
</svg>
