<svg width="28" height="27" viewBox="0 0 28 27" fill="none" xmlns="http://www.w3.org/2000/svg">
<path d="M0.588867 26.885L2.52536 19.6701C1.44092 17.6955 0.821246 15.4931 0.821246 13.2906C0.821246 5.99976 6.8631 0 14.3767 0C21.8128 0 27.9321 5.92382 27.9321 13.2906C27.9321 20.5815 21.8903 26.5812 14.3767 26.5812C12.1303 26.5812 9.96148 26.0496 7.94753 24.9863L0.588867 26.885ZM8.33483 22.2523L8.79959 22.5561C10.5037 23.5434 12.4402 24.075 14.3767 24.075C20.4185 24.075 25.3759 19.2144 25.3759 13.2906C25.3759 7.3668 20.4185 2.50622 14.3767 2.50622C8.33483 2.50622 3.37741 7.3668 3.37741 13.2906C3.37741 15.2652 3.91963 17.1639 5.00407 18.8347L5.3139 19.2904L4.22947 23.3155L8.33483 22.2523Z" fill="#00C2FF"/>
<path fill-rule="evenodd" clip-rule="evenodd" d="M19.4891 15.1132C18.9469 14.8094 18.1723 14.4297 17.5526 14.6575C17.0879 14.8854 16.7006 15.6448 16.3907 16.0246C16.2358 16.2524 16.0034 16.2524 15.7711 16.1765C13.912 15.417 12.4403 14.2019 11.3559 12.531C11.2009 12.3032 11.2009 12.0754 11.4333 11.8475C11.7432 11.4678 12.1305 11.088 12.2079 10.5564C12.2854 10.1007 12.053 9.49317 11.8206 9.03749C11.5882 8.50587 11.2784 7.67047 10.6587 7.36669C10.1165 7.0629 9.41938 7.21478 8.95462 7.59452C8.18002 8.20209 7.79272 9.26534 7.79272 10.2526C7.79272 10.5564 7.87018 10.7843 7.87018 11.0881C8.0251 11.7716 8.33494 12.3791 8.72224 12.9108C8.95462 13.3664 9.26446 13.7462 9.5743 14.2019C10.5813 15.5689 11.8206 16.7081 13.2924 17.6195C13.9895 18.0751 14.8415 18.4549 15.6161 18.6827C16.5457 18.9865 17.3203 19.2903 18.3272 19.1384C19.3342 18.9105 20.3412 18.303 20.8059 17.3156C20.9609 17.0119 20.9609 16.7081 20.8834 16.4043C20.8834 15.7967 19.9539 15.417 19.4891 15.1132Z" fill="#00C2FF"/>
</svg>
