<svg width="62" height="48" viewBox="0 0 62 48" fill="none" xmlns="http://www.w3.org/2000/svg">
<path d="M55.0623 48L43.0312 40.6691L44.2606 38.7491L51.813 43.2873L50.3201 36.3927L51.0227 35.9564C56.5552 32.2036 59.7167 27.2291 59.7167 21.8182C59.7167 11.0836 46.8074 2.26909 31 2.26909C15.1926 2.26909 2.28329 11.0836 2.28329 21.8182C2.28329 32.64 15.1926 41.3673 31 41.3673C33.6346 41.3673 36.1813 41.1055 38.728 40.6691L39.8697 40.4945L40.3088 42.7636L39.1671 42.9382C36.5326 43.4618 33.8102 43.7236 31 43.7236C13.8754 43.7236 0 33.8618 0 21.8182C0 9.77455 13.8754 0 31 0C48.1246 0 62 9.77455 62 21.8182C62 27.6655 58.6629 33.2509 52.779 37.3527L55.0623 48ZM20.6374 21.8182C20.6374 19.4618 18.7054 17.5418 16.3343 17.5418C13.9632 17.5418 12.0312 19.4618 12.0312 21.8182C12.0312 24.1745 13.9632 26.0945 16.3343 26.0945C18.7054 26.0945 20.6374 24.2618 20.6374 21.8182ZM18.3541 21.8182C18.3541 22.9527 17.4759 23.8255 16.3343 23.8255C15.1926 23.8255 14.3144 22.9527 14.3144 21.8182C14.3144 20.6836 15.1926 19.8109 16.3343 19.8109C17.4759 19.8109 18.3541 20.7709 18.3541 21.8182ZM35.3031 21.8182C35.3031 19.4618 33.3711 17.5418 31 17.5418C28.6289 17.5418 26.6969 19.4618 26.6969 21.8182C26.6969 24.1745 28.6289 26.0945 31 26.0945C33.3711 26.0945 35.3031 24.2618 35.3031 21.8182ZM33.0198 21.8182C33.0198 22.9527 32.1416 23.8255 31 23.8255C29.8584 23.8255 28.9802 22.9527 28.9802 21.8182C28.9802 20.6836 29.8584 19.8109 31 19.8109C32.1416 19.8109 33.0198 20.7709 33.0198 21.8182ZM50.0567 21.8182C50.0567 19.4618 48.1246 17.5418 45.7535 17.5418C43.3824 17.5418 41.4504 19.4618 41.4504 21.8182C41.4504 24.1745 43.3824 26.0945 45.7535 26.0945C48.1246 26.0945 50.0567 24.2618 50.0567 21.8182ZM47.7734 21.8182C47.7734 22.9527 46.8952 23.8255 45.7535 23.8255C44.6119 23.8255 43.7337 22.9527 43.7337 21.8182C43.7337 20.6836 44.6119 19.8109 45.7535 19.8109C46.8952 19.8109 47.7734 20.7709 47.7734 21.8182Z" fill="#00C2FF"/>
</svg>
