<svg width="980" height="941" viewBox="0 0 980 941" fill="none" xmlns="http://www.w3.org/2000/svg">
<path d="M968.156 587.529C1027.5 311.007 857.791 68.8668 593.881 11.954C443.827 -20.401 295.795 14.2256 185.123 100.055L64.9582 37.3714C56.0775 32.7668 46.2169 41.5462 49.7692 50.8782L100.42 186.192C59.6298 240.097 29.1292 304.07 13.4502 377.314C-17.5404 521.591 6.77434 642.17 68.388 735.122C100.175 781.904 152.602 791.052 185.307 775.09C239.081 748.935 233.508 686.927 210.847 646.406C171.343 577.092 159.584 505.321 178.08 419.185C209.071 274.907 334.38 178.211 479.228 175.939L338.545 831.204C327.337 883.328 366.167 916.85 428.148 930.234C666.029 981.621 912.667 846.062 968.156 587.529ZM636.692 211.978C760.899 276.504 833.905 413.905 802.914 558.182C771.495 704.424 640.428 808.304 513.219 787.123L636.692 211.978Z" fill="url(#paint0_linear)"/>
<defs>
<linearGradient id="paint0_linear" x1="364.037" y1="828.8" x2="584.794" y2="53.0583" gradientUnits="userSpaceOnUse">
<stop stop-color="#090A16"/>
<stop offset="0.5034" stop-color="#045286"/>
<stop offset="1" stop-color="#069A9A"/>
</linearGradient>
</defs>
</svg>
