<svg width="68" height="58" viewBox="0 0 68 58" fill="none" xmlns="http://www.w3.org/2000/svg">
<path d="M10.062 21.6498C13.7333 21.6498 16.7247 18.7097 16.7247 15.1014C16.7247 11.4931 13.7333 8.553 10.062 8.553C6.39072 8.553 3.39932 11.4931 3.39932 15.1014C3.39932 18.7097 6.39072 21.6498 10.062 21.6498ZM10.062 10.9585C12.3871 10.9585 14.2771 12.8161 14.2771 15.1014C14.2771 17.3866 12.3871 19.2442 10.062 19.2442C7.73685 19.2442 5.84683 17.3866 5.84683 15.1014C5.84683 12.8161 7.73685 10.9585 10.062 10.9585ZM33.9932 21.6498C40.0712 21.6498 45.007 16.7986 45.007 10.8249C45.007 4.85115 40.0712 0 33.9932 0C27.9152 0 22.9794 4.85115 22.9794 10.8249C22.9794 16.7986 27.9152 21.6498 33.9932 21.6498ZM33.9932 2.40553C38.7115 2.40553 42.5595 6.18756 42.5595 10.8249C42.5595 15.4622 38.7115 19.2442 33.9932 19.2442C29.2749 19.2442 25.4269 15.4622 25.4269 10.8249C25.4269 6.18756 29.2749 2.40553 33.9932 2.40553ZM67.9864 36.0161C67.9864 31.4857 64.2064 27.7972 59.5697 27.7972H56.4151C53.1382 27.7972 50.1468 29.6816 48.7734 32.5949L48.2567 33.6908L47.4273 32.8088C44.4631 29.6147 40.2615 27.7972 35.8968 27.7972H32.0896C27.7249 27.7972 23.5233 29.6147 20.5591 32.7954L19.7297 33.6774L19.213 32.5816C17.8396 29.6682 14.8346 27.7839 11.5577 27.7839H8.41672C3.78004 27.7972 0 31.4857 0 36.0161V50.6097C0 52.3203 1.42771 53.7235 3.18176 53.7235H16.3983L16.4663 54.4585C16.6431 56.4498 18.3699 58 20.3959 58H47.5905C49.6165 58 51.3433 56.4498 51.5201 54.4585L51.5881 53.7235H64.6687C66.5043 53.7235 68 52.2668 68 50.476V36.0161H67.9864ZM17.5405 37.5396L17.4861 37.6733C16.3983 40.4797 16.3983 42.324 16.4391 47.2553C16.4391 48.2042 16.4527 49.2866 16.4527 50.5161V51.318H2.44751V36.0161C2.44751 32.8088 5.12617 30.2028 8.41672 30.2028H11.5713C14.8618 30.2028 17.5405 32.8088 17.5405 36.0161V37.5396ZM49.0862 54.1244C49.0862 54.9396 48.4199 55.5945 47.5905 55.5945H20.3959C19.5665 55.5945 18.9002 54.9396 18.9002 54.1244V43.1659C18.9002 36.0161 24.815 30.2028 32.0896 30.2028H35.8968C43.1714 30.2028 49.0862 36.0161 49.0862 43.1659V54.1244ZM65.4437 50.877C65.199 51.318 64.8998 51.318 63.9752 51.318C63.6353 51.318 63.1458 51.318 62.4523 51.318C61.8268 51.318 61.0246 51.318 60.0048 51.318C58.21 51.318 55.7488 51.318 52.3495 51.318H51.5337V50.5161C51.5337 49.3 51.5473 48.2042 51.5473 47.2553C51.5745 42.324 51.5881 40.4797 50.5003 37.6733L50.4459 37.5396V36.0161C50.4459 32.8088 53.1246 30.2028 56.4151 30.2028H59.5697C62.8602 30.2028 65.5389 32.8088 65.5389 36.0161V50.2355L65.6749 50.4359L65.4437 50.877ZM57.9244 21.6498C61.5957 21.6498 64.5871 18.7097 64.5871 15.1014C64.5871 11.4931 61.5957 8.553 57.9244 8.553C54.2531 8.553 51.2617 11.4931 51.2617 15.1014C51.2617 18.7097 54.2531 21.6498 57.9244 21.6498ZM57.9244 10.9585C60.2495 10.9585 62.1396 12.8161 62.1396 15.1014C62.1396 17.3866 60.2495 19.2442 57.9244 19.2442C55.5993 19.2442 53.7093 17.3866 53.7093 15.1014C53.7093 12.8161 55.5993 10.9585 57.9244 10.9585Z" fill="#00C2FF"/>
</svg>
