<svg width="58" height="56" viewBox="0 0 58 56" fill="none" xmlns="http://www.w3.org/2000/svg">
<path d="M32.4937 50.1323C30.0504 48.9833 27.9839 47.1984 26.511 44.9562C25.0039 42.6693 24.2047 40.0032 24.2047 37.259C24.2047 34.9275 24.7984 32.6072 25.9059 30.5657C26.0201 30.3538 26.2142 30.1976 26.4425 30.1307C26.5339 30.1084 26.6252 30.0861 26.7051 30.0861C26.8535 30.0861 27.002 30.1195 27.1276 30.1865C27.3445 30.298 27.5043 30.4876 27.5728 30.7108C27.6413 30.9339 27.6185 31.1793 27.5043 31.3912C26.5339 33.1873 26.0087 35.2064 26.0087 37.2478C26.0087 42.0223 28.8516 46.4398 33.2587 48.5147C33.7154 48.7267 33.9094 49.2622 33.6811 49.7084C33.5327 50.0207 33.2016 50.2104 32.8591 50.2104C32.7563 50.2215 32.6193 50.1992 32.4937 50.1323ZM37.0264 51.5378H37.1063C37.6087 51.5378 38.0197 51.1363 38.0197 50.6454C38.0197 50.1546 37.6087 49.753 37.1063 49.753H37.0378C36.5354 49.753 36.1244 50.1546 36.1244 50.6454C36.1244 51.1363 36.524 51.5378 37.0264 51.5378ZM38.8189 28.2454C38.3165 28.2454 37.9055 28.647 37.9055 29.1379V29.8964L37.7228 29.941C35.6791 30.3984 34.252 32.0494 34.252 33.957C34.252 36.2327 36.2957 38.0845 38.8189 38.0845C40.326 38.0845 41.5591 39.1331 41.5591 40.4271C41.5591 41.7211 40.326 42.7697 38.8189 42.7697C37.3118 42.7697 36.0787 41.7211 36.0787 40.4271C36.0787 39.9363 35.6677 39.5347 35.1654 39.5347C34.663 39.5347 34.252 39.9363 34.252 40.4271C34.252 42.3347 35.6791 43.9857 37.7228 44.443L37.9055 44.4876V45.1458C37.9055 45.6367 38.3165 46.0382 38.8189 46.0382C39.3213 46.0382 39.7323 45.6367 39.7323 45.1458V44.4876L39.915 44.443C41.9587 43.9857 43.3858 42.3347 43.3858 40.4271C43.3858 38.1514 41.3421 36.2996 38.8189 36.2996C37.3118 36.2996 36.0787 35.251 36.0787 33.957C36.0787 32.6629 37.3118 31.6143 38.8189 31.6143C40.326 31.6143 41.5591 32.6629 41.5591 33.957C41.5591 34.4478 41.9701 34.8494 42.4724 34.8494C42.9748 34.8494 43.3858 34.4478 43.3858 33.957C43.3858 32.0494 41.9587 30.3984 39.915 29.941L39.7323 29.8964V29.1379C39.7323 28.647 39.3213 28.2454 38.8189 28.2454ZM40.6114 22.9801H40.5315C40.0291 22.9801 39.6181 23.3817 39.6181 23.8725C39.6181 24.3633 40.0291 24.7649 40.5315 24.7649H40.6C41.1024 24.7649 41.5134 24.3633 41.5134 23.8725C41.5134 23.3817 41.1138 22.9801 40.6114 22.9801ZM44.3563 25.992C48.7634 28.0669 51.6063 32.4845 51.6063 37.259C51.6063 39.3004 51.0925 41.3307 50.1106 43.1155C49.9965 43.3275 49.9736 43.5729 50.0421 43.796C50.1106 44.0191 50.2705 44.2088 50.4874 44.3203C50.6244 44.3873 50.7728 44.4207 50.9098 44.4207C51.2524 44.4207 51.5606 44.2422 51.7205 43.9522C52.8394 41.8996 53.4216 39.5904 53.4216 37.259C53.4216 34.5147 52.6224 31.8486 51.1154 29.5618C49.6425 27.3307 47.576 25.5347 45.1327 24.3857C45.0071 24.3299 44.8701 24.2964 44.7331 24.2964C44.6303 24.2964 44.5276 24.3187 44.4248 24.3522C44.1965 24.4303 44.0138 24.5976 43.8996 24.8096C43.7968 25.0215 43.7854 25.2669 43.8654 25.49C43.9681 25.7131 44.128 25.8916 44.3563 25.992ZM6.16535 45.0677C6.16535 43.5618 6.86181 42.1673 8.07205 41.2303L8.30039 41.0518L8.07205 40.8733C6.86181 39.9363 6.16535 38.5418 6.16535 37.0359C6.16535 35.5299 6.86181 34.1355 8.07205 33.1984L8.30039 33.0199L8.07205 32.8414C6.86181 31.9044 6.16535 30.51 6.16535 29.004C6.16535 27.498 6.86181 26.1036 8.07205 25.1665L8.30039 24.988L8.07205 24.8096C6.86181 23.8725 6.16535 22.4781 6.16535 20.9721C6.16535 18.2614 8.41457 16.0637 11.189 16.0637H14.6028L14.3516 15.7179C13.7693 14.9036 13.4724 13.9442 13.4724 12.9402C13.4724 11.9474 13.7807 10.988 14.3516 10.1625L14.6028 9.81673H5.02362C2.24921 9.81673 0 7.61912 0 4.90837C0 2.19761 2.24921 0 5.02362 0H32.9961C35.7705 0 38.0197 2.19761 38.0197 4.90837C38.0197 5.9012 37.7114 6.86056 37.1405 7.68606L36.8894 8.03187H46.4685C49.2429 8.03187 51.4921 10.2295 51.4921 12.9402C51.4921 15.651 49.2429 17.8486 46.4685 17.8486H43.0661L43.3059 18.1944C43.5 18.4622 43.6598 18.7633 43.7854 19.0645L43.8311 19.1649L43.9339 19.1984C52.2228 21.4406 58 28.8701 58 37.259C58 47.5888 49.3913 56 38.8189 56C33.5327 56 28.4291 53.8247 24.8098 50.043L24.7413 49.9761H11.189C8.41457 49.9761 6.16535 47.7785 6.16535 45.0677ZM38.8189 20.3028C29.2512 20.3028 21.4646 27.9108 21.4646 37.259C21.4646 46.6072 29.2512 54.2151 38.8189 54.2151C48.3866 54.2151 56.1732 46.6072 56.1732 37.259C56.1732 27.9108 48.3866 20.3028 38.8189 20.3028ZM18.4961 9.81673C16.7378 9.81673 15.2992 11.2223 15.2992 12.9402C15.2992 14.6582 16.7378 16.0637 18.4961 16.0637H46.4685C48.2268 16.0637 49.6654 14.6582 49.6654 12.9402C49.6654 11.2223 48.2268 9.81673 46.4685 9.81673H18.4961ZM32.9961 8.03187C34.7543 8.03187 36.1929 6.6263 36.1929 4.90837C36.1929 3.19044 34.7543 1.78486 32.9961 1.78486H5.02362C3.26535 1.78486 1.82677 3.19044 1.82677 4.90837C1.82677 6.6263 3.26535 8.03187 5.02362 8.03187H32.9961ZM11.189 24.0956H25.1752L25.2437 24.0287C28.8744 20.4701 33.6925 18.5179 38.8189 18.5179C39.3441 18.5179 39.8921 18.5402 40.4402 18.5849L41.6618 18.6853L40.5543 18.161C40.1091 17.949 39.6409 17.8486 39.1614 17.8486H11.189C9.43071 17.8486 7.99213 19.2542 7.99213 20.9721C7.99213 22.69 9.43071 24.0956 11.189 24.0956ZM11.189 32.1275H20.3685L20.4142 31.9713C21.0307 29.9076 22.0126 27.9777 23.3142 26.2375L23.5768 25.8805H11.189C9.43071 25.8805 7.99213 27.2861 7.99213 29.004C7.99213 30.7219 9.43071 32.1275 11.189 32.1275ZM11.189 40.1594H19.8661L19.8319 39.9028C19.7063 39.0215 19.6378 38.1402 19.6378 37.259C19.6378 36.2327 19.7291 35.1952 19.9004 34.1689L19.9461 33.9124H11.189C9.43071 33.9124 7.99213 35.3179 7.99213 37.0359C7.99213 38.7538 9.43071 40.1594 11.189 40.1594ZM7.99213 45.0677C7.99213 46.7857 9.43071 48.1912 11.189 48.1912H23.2457L22.9945 47.8454C21.7614 46.094 20.848 44.1641 20.2886 42.1116L20.2429 41.9442H11.189C9.43071 41.9442 7.99213 43.3498 7.99213 45.0677Z" fill="#00C2FF"/>
</svg>
