<svg width="58" height="58" viewBox="0 0 58 58" fill="none" xmlns="http://www.w3.org/2000/svg">
<path d="M58 26.6892C58 31.8191 56.4171 36.8104 53.4131 41.1084C52.8701 41.894 51.7841 42.0789 50.9984 41.5359C50.6171 41.2701 50.3629 40.8773 50.2821 40.4151C50.2012 39.9645 50.3052 39.5024 50.5709 39.1211C53.159 35.4008 54.5339 31.1028 54.5339 26.6892C54.5339 13.8876 43.0841 3.46614 29 3.46614C14.9159 3.46614 3.46614 13.8876 3.46614 26.6892C3.46614 31.8884 5.31474 36.7988 8.80398 40.9004C9.21992 41.3972 9.33546 42.0789 9.09283 42.6797L4.93347 52.9626L16.7877 47.7402C17.2267 47.5438 17.7235 47.5438 18.1625 47.7287C21.5594 49.1845 25.2104 49.9124 28.9884 49.9124C33.3442 49.9124 37.6422 48.8956 41.4088 46.9777C42.2637 46.5502 43.3036 46.8853 43.7426 47.7402C44.1701 48.5952 43.8351 49.6351 42.9801 50.0741C38.7398 52.2347 33.8988 53.3785 29 53.3785C25.0948 53.3785 21.3052 52.6737 17.7351 51.2873L17.5155 51.1948L2.43785 57.8498C2.21833 57.9422 1.9757 58 1.74462 58C1.29402 58 0.866534 57.8267 0.543028 57.5147C0.0346613 57.0179 -0.127092 56.2785 0.138645 55.6199L5.51116 42.3331L5.31474 42.0673C1.83705 37.5614 0 32.2466 0 26.6892C0 19.5259 3.03865 12.8131 8.5498 7.76414C14.0263 2.76135 21.2821 0 29 0C36.7179 0 43.9853 2.76135 49.4502 7.76414C54.9614 12.8131 58 19.5259 58 26.6892ZM29 14.7888C28.041 14.7888 27.2669 15.5629 27.2669 16.5219C27.2669 17.4809 28.041 18.255 29 18.255C29.959 18.255 30.7331 17.4809 30.7331 16.5219C30.7331 15.5629 29.959 14.7888 29 14.7888ZM27.2669 36.9721C27.2669 37.9311 28.041 38.7052 29 38.7052C29.959 38.7052 30.7331 37.9311 30.7331 36.9721V24.494C30.7331 23.5351 29.959 22.761 29 22.761C28.041 22.761 27.2669 23.5351 27.2669 24.494V36.9721Z" fill="#00C2FF"/>
</svg>
