<svg width="28" height="27" viewBox="0 0 28 27" fill="none" xmlns="http://www.w3.org/2000/svg">
<path d="M21.5805 4.78418C20.7285 4.78418 19.9539 5.4677 19.9539 6.37905C19.9539 7.21446 20.651 7.97393 21.5805 7.97393C22.4326 7.97393 23.2072 7.29041 23.2072 6.37905C23.1297 5.4677 22.4326 4.78418 21.5805 4.78418Z" fill="#00C2FF"/>
<path d="M14.3767 6.83496C10.6586 6.83496 7.6377 9.79687 7.6377 13.4423C7.6377 17.0877 10.6586 20.0496 14.3767 20.0496C18.0947 20.0496 21.1157 17.0877 21.1157 13.4423C21.1157 9.79687 18.0947 6.83496 14.3767 6.83496ZM14.3767 17.6953C11.9754 17.6953 10.0389 15.7966 10.0389 13.4423C10.0389 11.088 11.9754 9.1893 14.3767 9.1893C16.7779 9.1893 18.7144 11.088 18.7144 13.4423C18.7144 15.7966 16.7779 17.6953 14.3767 17.6953Z" fill="#00C2FF"/>
<path d="M19.7989 26.885H8.79959C4.30693 26.885 0.588867 23.2396 0.588867 18.7588V8.05031C0.588867 3.56948 4.30693 0 8.79959 0H19.7214C24.2915 0 27.9321 3.64542 27.9321 8.05031V18.7588C28.0096 23.2396 24.2915 26.885 19.7989 26.885ZM8.79959 2.50623C5.7012 2.50623 3.14503 5.01246 3.14503 8.05031V18.7588C3.14503 21.7966 5.7012 24.3028 8.79959 24.3028H19.7214C22.8198 24.3028 25.3759 21.7966 25.3759 18.7588V8.05031C25.3759 5.01246 22.8198 2.50623 19.7214 2.50623H8.79959Z" fill="#00C2FF"/>
</svg>
