<svg width="341" height="107" viewBox="0 0 341 107" fill="none" xmlns="http://www.w3.org/2000/svg">
<path d="M239.648 41.1803H233.317C233.282 41.1803 233.247 41.1456 233.247 41.1108V27.6967C233.247 27.662 233.282 27.6272 233.317 27.6272H239.648C239.683 27.6272 239.718 27.662 239.718 27.6967V41.0761C239.753 41.1456 239.683 41.1803 239.648 41.1803ZM292.991 36.6974V25.9244H289.738V36.6974H292.991ZM264.238 56.6795C262.14 56.6795 260.426 58.3823 260.426 60.4674C260.426 62.5525 262.14 64.2553 264.238 64.2553C266.337 64.2553 268.051 62.5525 268.051 60.4674C268.051 58.3476 266.337 56.6795 264.238 56.6795ZM259.621 60.4327C259.621 60.1547 259.656 59.8766 259.691 59.6334C249.617 57.9653 241.572 50.9107 238.494 41.4583C237.934 41.7711 237.304 41.9796 236.64 41.9796C239.998 52.1618 248.812 59.8419 259.726 61.51C259.656 61.1972 259.621 60.8149 259.621 60.4327ZM292.152 25.0903C288.654 13.0316 277.461 4.16992 264.238 4.16992C250.282 4.16992 238.738 13.8656 235.905 26.8279C236.115 26.7932 236.325 26.7584 236.535 26.7584C236.989 26.7584 237.444 26.8627 237.864 27.0017C240.557 14.8734 251.191 5.94225 264.238 5.94225C276.516 5.94225 286.8 13.9699 290.158 25.0903H292.152Z" fill="white"/>
<path d="M340.004 35.7596V35.8639V36.8369V56.5411C340.004 57.0623 339.654 57.5141 339.094 57.5141C338.534 57.5141 338.115 57.0623 338.115 56.5411V35.8639C338.115 25.8555 331.224 17.5846 321.22 17.5846C311.146 17.5846 303.555 25.6469 303.555 35.8639V56.5411C303.555 57.0623 303.1 57.5141 302.576 57.5141C302.121 57.5141 301.596 57.0623 301.596 56.5411V17.0286C301.596 16.5073 302.051 16.0555 302.471 16.0555C302.925 16.0555 303.275 16.403 303.275 17.1328V28.4966C305.969 20.9555 312.93 15.708 321.325 15.708C332.518 15.708 340.004 24.6739 340.004 35.7596Z" fill="white"/>
<path d="M0.562627 48.5132C-0.87153 45.8373 0.562627 42.9182 3.43094 42.9182C4.41036 42.9182 5.84452 43.0224 6.99884 45.038C8.78279 48.3047 13.3301 50.8763 19.5914 50.8763C25.7478 50.8763 30.6799 48.0266 30.6799 41.2848C30.6799 36.3154 25.503 34.0913 18.1923 31.2764C10.147 28.1835 2.1367 24.0828 2.1367 14.5261C2.06674 4.96947 9.65728 0 18.8569 0C25.8178 0 32.4289 2.84963 35.7169 8.23612C36.6264 9.66093 35.8918 11.329 35.0174 12.2325C33.933 13.3098 31.4495 14.0049 29.5606 11.7113C27.0421 8.51413 22.8795 7.26307 18.4021 7.26307C14.0997 7.26307 9.65728 9.13966 9.65728 14.3524C9.65728 20.1211 15.6388 22.3452 19.5565 23.8396C30.0153 27.836 38.4104 32.0062 38.4104 41.3196C38.4104 51.4323 30.0153 58.1741 18.7519 58.1741C9.58732 58.2088 3.25604 53.5869 0.562627 48.5132ZM86.2622 36.9061C86.2622 48.8954 76.7128 58.1046 65.7293 58.1046C59.6429 58.1046 54.7458 55.7067 51.3528 51.5365V68.4953C51.3528 70.7889 49.9186 72.5612 47.61 72.5612C45.4762 72.5612 43.6923 70.7889 43.6923 68.4953V19.5999C43.6923 17.6538 45.1264 16.0552 46.6305 16.0552C48.0647 16.0552 49.6737 17.0283 49.6737 19.9474V24.2218C53.0667 18.9048 58.9783 15.7077 65.8342 15.7077C76.7128 15.7077 86.2622 24.7431 86.2622 36.9061ZM78.9515 36.9061C78.9515 29.1913 72.7951 22.9708 65.0297 22.9708C57.2643 22.9708 51.003 29.1913 51.003 36.9061C51.003 44.4472 57.2643 50.7373 65.0297 50.7373C72.7951 50.7373 78.9515 44.4472 78.9515 36.9061ZM179.517 19.7041V53.9344C179.517 55.8805 178.433 57.4791 176.474 57.4791C174.166 57.4791 173.431 55.8805 173.431 53.9344V49.2429C170.038 54.8379 164.686 58.1046 157.375 58.1046C146.567 58.1046 136.912 48.8607 136.912 36.9061C136.912 24.7431 146.567 15.7077 157.445 15.7077C164.686 15.7077 170.038 18.9048 173.431 24.4998V20.0516C173.431 17.202 175.04 16.1595 176.474 16.1595C178.083 16.1595 179.517 17.758 179.517 19.7041ZM172.172 36.9061C172.172 29.0175 166.015 22.9708 158.25 22.9708C150.484 22.9708 144.223 29.1913 144.223 36.9061C144.223 44.4472 150.484 50.7373 158.25 50.7373C166.015 50.7373 172.172 44.7252 172.172 36.9061ZM185.569 53.6564V4.06593C185.569 1.94609 187.353 0.243261 189.487 0.243261C191.62 0.243261 193.229 1.94609 193.229 4.06593V34.0565L210.649 17.3063C212.153 15.812 214.392 15.9857 215.931 17.48C215.931 17.48 216.036 17.48 216.036 17.5843C217.47 19.0786 217.365 21.407 215.861 22.8318L203.513 34.404L218.974 51.0848C220.303 52.5096 220.408 54.977 218.799 56.506C217.295 57.9308 214.882 57.9308 213.447 56.3323L198.266 39.4778L193.264 44.0997V53.6911C193.264 55.811 191.585 57.5138 189.521 57.5138C187.353 57.4791 185.569 55.811 185.569 53.6564ZM112.287 15.7077C99.9742 15.7077 91.2293 25.1254 91.2293 36.8366C91.2293 43.5089 94.0626 49.4515 98.7499 53.3784L96.861 60.2244L103.192 56.1933C105.851 57.4443 108.859 58.1393 112.147 58.1393C118.583 58.1393 123.48 56.0195 126.873 52.5443C128.587 50.772 128.482 48.4784 127.503 47.2274C125.894 45.177 123.305 45.9763 121.801 47.3316C119.213 49.6252 116.275 50.8068 112.427 50.8068C105.991 50.8068 100.744 46.3586 99.3095 40.2423H128.517C130.826 40.2423 131.91 38.2962 131.91 35.5508C131.875 24.9169 123.83 15.7077 112.287 15.7077ZM99.3445 33.1877C100.954 27.3495 106.131 22.9708 112.567 22.9708C119.073 22.9708 124.705 27.5927 124.984 33.1877H99.3445Z" fill="url(#paint0_linear)"/>
<path d="M72.3065 86.2881H73.146V94.2809H84.7591V86.2881H85.5986V103.143H84.7591V95.0107H73.111V103.143H72.2715V86.2881H72.3065Z" fill="#1A9BCD"/>
<path d="M89.4814 97.1306V97.0959C89.4814 93.6902 92.0699 90.7363 95.8477 90.7363C99.5905 90.7363 102.144 93.6555 102.144 97.0611V97.0959C102.144 100.502 99.5905 103.455 95.8127 103.455C92.0699 103.455 89.4814 100.536 89.4814 97.1306ZM101.304 97.0959V97.0611C101.304 94.003 98.9609 91.4314 95.7777 91.4314C92.5596 91.4314 90.321 93.9682 90.321 97.0611V97.0959C90.321 100.154 92.6646 102.726 95.8127 102.726C99.0308 102.726 101.304 100.154 101.304 97.0959Z" fill="#1A9BCD"/>
<path d="M104.068 91.0148H104.942L108.79 102.135L112.638 90.9453H113.267L117.115 102.135L120.963 91.0148H121.767L117.43 103.247H116.765L112.918 92.1616L109.07 103.247H108.44L104.068 91.0148Z" fill="#1A9BCD"/>
<path d="M131.107 91.0148H131.981L135.829 102.135L139.677 90.9453H140.307L144.154 102.135L148.002 91.0148H148.807L144.469 103.247H143.804L139.957 92.1616L136.109 103.247H135.444L131.107 91.0148Z" fill="#1A9BCD"/>
<path d="M150.8 97.0959V97.0611C150.8 93.4817 153.284 90.7363 156.642 90.7363C160.315 90.7363 162.239 93.864 162.239 97.1306C162.239 97.2349 162.239 97.3044 162.239 97.4086H151.64C151.78 100.71 154.123 102.76 156.887 102.76C158.776 102.76 160.315 101.787 161.259 100.536L161.854 100.988C160.734 102.448 159.09 103.49 156.852 103.49C153.564 103.455 150.8 100.953 150.8 97.0959ZM161.399 96.6788C161.294 94.0377 159.65 91.4661 156.607 91.4661C153.844 91.4661 151.815 93.6902 151.675 96.6788H161.399Z" fill="#1A9BCD"/>
<path d="M171.928 97.0959V97.0611C171.928 93.6555 174.656 90.7363 178.189 90.7363C180.428 90.7363 181.862 91.7441 183.051 92.9604L182.492 93.5165C181.442 92.3697 180.078 91.4314 178.154 91.4314C175.076 91.4314 172.732 93.9682 172.732 97.0264V97.0611C172.732 100.119 175.146 102.691 178.189 102.691C180.113 102.691 181.512 101.718 182.561 100.536L183.121 101.023C181.932 102.413 180.393 103.421 178.119 103.421C174.621 103.455 171.928 100.536 171.928 97.0959Z" fill="#1A9BCD"/>
<path d="M185.43 99.7372V99.7025C185.43 97.1656 187.738 95.8103 190.852 95.8103C192.565 95.8103 194.035 96.0883 195.224 96.4706V95.6365C195.224 92.8912 193.58 91.5359 190.852 91.5359C189.347 91.5359 188.088 91.9529 186.864 92.5436L186.584 91.8834C187.948 91.2231 189.277 90.8408 190.886 90.8408C192.566 90.8408 193.86 91.2578 194.769 92.1614C195.539 92.9607 195.993 94.1075 195.993 95.6018V103.178H195.224V100.641C194.594 101.961 192.88 103.456 190.082 103.456C187.738 103.456 185.43 102.17 185.43 99.7372ZM195.224 98.6599V97.1656C194.035 96.7833 192.635 96.5053 190.817 96.5053C188.123 96.5053 186.269 97.6521 186.269 99.633V99.6677C186.269 101.683 188.088 102.691 190.117 102.691C193.09 102.726 195.224 100.849 195.224 98.6599Z" fill="#1A9BCD"/>
<path d="M200.261 91.0143H201.031V93.8987C201.59 92.4392 203.129 90.7363 205.718 90.7363C208.936 90.7363 210.755 92.8909 210.755 96.0533V103.143H209.985V96.1576C209.985 93.3427 208.446 91.4314 205.613 91.4314C203.059 91.4314 200.996 93.5165 200.996 96.2966V103.143H200.226V91.0143H200.261Z" fill="#1A9BCD"/>
<path d="M222.018 85.5586H222.788V93.899C223.348 92.4394 224.887 90.7366 227.475 90.7366C230.693 90.7366 232.512 92.8912 232.512 96.0536V103.143H231.743V96.1578C231.743 93.3429 230.204 91.4316 227.37 91.4316C224.817 91.4316 222.753 93.5167 222.753 96.2968V103.143H221.983V85.5586H222.018Z" fill="#1A9BCD"/>
<path d="M235.975 97.0959V97.0611C235.975 93.4817 238.459 90.7363 241.817 90.7363C245.489 90.7363 247.413 93.864 247.413 97.1306C247.413 97.2349 247.413 97.3044 247.413 97.4086H236.815C236.955 100.71 239.298 102.76 242.062 102.76C243.95 102.76 245.489 101.787 246.434 100.536L247.029 100.988C245.909 102.448 244.265 103.49 242.027 103.49C238.738 103.455 235.975 100.953 235.975 97.0959ZM246.574 96.6788C246.469 94.0377 244.825 91.4661 241.782 91.4661C239.018 91.4661 236.989 93.6902 236.85 96.6788H246.574Z" fill="#1A9BCD"/>
<path d="M251.121 85.5586H251.926V103.143H251.121V85.5586Z" fill="#1A9BCD"/>
<path d="M256.578 91.0149H257.348V94.3511C258.187 92.3355 260.076 90.7021 262.769 90.7021C266.058 90.7021 268.821 93.3433 268.821 97.0269V97.0617C268.821 100.745 266.093 103.386 262.769 103.386C260.076 103.386 258.187 101.788 257.348 99.8071V106.966H256.578V91.0149ZM267.946 97.1312V97.0964C267.946 93.8993 265.708 91.4667 262.665 91.4667C259.656 91.4667 257.278 93.934 257.278 97.0617V97.0964C257.278 100.224 259.691 102.691 262.665 102.691C265.743 102.691 267.946 100.363 267.946 97.1312Z" fill="#1A9BCD"/>
<defs>
<linearGradient id="paint0_linear" x1="-17.0196" y1="36.2846" x2="381.576" y2="36.2846" gradientUnits="userSpaceOnUse">
<stop offset="0.00140297" stop-color="#65C1C2"/>
<stop offset="1" stop-color="#1E4E9D"/>
</linearGradient>
</defs>
</svg>
