<svg width="43" height="29" viewBox="0 0 43 29" fill="none" xmlns="http://www.w3.org/2000/svg">
<path d="M31.5718 8.40671C31.5144 8.40671 2.96748 8.40671 2.96748 8.40671L8.98037 1.74991C9.37412 1.3207 9.33311 0.656639 8.89834 0.267921C8.46357 -0.120797 7.79092 -0.080306 7.39717 0.348904L0.621387 7.85603C-0.207129 8.77113 -0.207129 10.1478 0.621387 11.063L7.39717 18.5539C7.61045 18.7887 7.89756 18.9021 8.19287 18.9021C8.44717 18.9021 8.69326 18.813 8.89834 18.6349C9.33311 18.2461 9.37412 17.5902 8.98037 17.1529L2.96748 10.4961C2.96748 10.4961 31.5144 10.4961 31.5718 10.4961C36.1573 10.4961 39.8815 14.1727 39.8815 18.6996C39.8815 23.2266 36.1573 26.9032 31.5718 26.9032H26.5187C25.9362 26.9032 25.4604 27.3729 25.4604 27.9479C25.4604 28.5229 25.9362 28.9926 26.5187 28.9926H31.5718C37.3222 28.9926 42.0062 24.3765 42.0062 18.6915C42.0062 13.0308 37.3304 8.40671 31.5718 8.40671Z" fill="url(#paint0_linear)"/>
<defs>
<linearGradient id="paint0_linear" x1="-3.24985" y1="14.4979" x2="72.8608" y2="14.4979" gradientUnits="userSpaceOnUse">
<stop offset="0.00140297" stop-color="#65C1C2"/>
<stop offset="1" stop-color="#1E4E9D"/>
</linearGradient>
</defs>
</svg>
